<?xml version="1.0" encoding="utf-8"?>
<!-- Generator: Adobe Illustrator 18.0.0, SVG Export Plug-In . SVG Version: 6.00 Build 0)  -->
<!DOCTYPE svg PUBLIC "-//W3C//DTD SVG 1.1//EN" "http://www.w3.org/Graphics/SVG/1.1/DTD/svg11.dtd">
<svg version="1.1"
	 id="svg2" xmlns:rdf="http://www.w3.org/1999/02/22-rdf-syntax-ns#" xmlns:sodipodi="http://sodipodi.sourceforge.net/DTD/sodipodi-0.dtd" xmlns:inkscape="http://www.inkscape.org/namespaces/inkscape" xmlns:cc="http://creativecommons.org/ns#" xmlns:svg="http://www.w3.org/2000/svg" xmlns:dc="http://purl.org/dc/elements/1.1/" inkscape:export-ydpi="399.98953" inkscape:export-xdpi="399.98953" inkscape:export-filename="/home/fb91/EMEX/Clientes/PastoralDeDrogaDependencia/Hogar Padre Misericordioso/calcomania negocios/calcomania negocios.png" sodipodi:docname="calcomania negocios.svg" inkscape:version="0.48.4 r9939"
	 xmlns="http://www.w3.org/2000/svg" xmlns:xlink="http://www.w3.org/1999/xlink" x="0px" y="0px" viewBox="0 0 744.1 744.1"
	 enable-background="new 0 0 744.1 744.1" xml:space="preserve">
<sodipodi:namedview  pagecolor="#ffffff" showguides="true" units="mm" inkscape:cx="344.6594" bordercolor="#666666" showgrid="false" borderopacity="1.0" inkscape:cy="336.49928" id="base" inkscape:zoom="0.49497475" inkscape:window-y="0" inkscape:window-x="0" inkscape:window-height="721" inkscape:window-width="1366" inkscape:pageshadow="2" inkscape:current-layer="layer1" inkscape:document-units="px" inkscape:pageopacity="0" inkscape:guide-bbox="true" inkscape:window-maximized="1">
	</sodipodi:namedview>
<g id="path3082">
	
		<path sodipodi:cx="333.35034" sodipodi:cy="378.41925" sodipodi:type="arc" sodipodi:ry="371.73615" sodipodi:rx="371.73615" fill="#FFFFFF" d="
		M744.1,372c0,205.5-166.6,372-372,372S0,577.5,0,372S166.6,0,372,0S744.1,166.6,744.1,372z"/>
	<path fill="#C6C6C6" d="M372,744.6c-50.3,0-99.1-9.9-145-29.3c-44.4-18.8-84.2-45.6-118.4-79.8s-61.1-74.1-79.8-118.4
		C9.4,471.1-0.5,422.3-0.5,372S9.4,273,28.8,227c18.8-44.4,45.6-84.2,79.8-118.4S182.7,47.5,227,28.8C273,9.4,321.8-0.5,372-0.5
		c50.3,0,99.1,9.9,145,29.3c44.4,18.8,84.2,45.6,118.4,79.8c34.2,34.2,61.1,74.1,79.8,118.4c19.4,45.9,29.3,94.7,29.3,145
		s-9.9,99.1-29.3,145c-18.8,44.4-45.6,84.2-79.8,118.4c-34.2,34.2-74.1,61.1-118.4,79.8C471.1,734.7,422.3,744.6,372,744.6z
		 M372,0.5C167.2,0.5,0.5,167.2,0.5,372c0,204.9,166.7,371.5,371.5,371.5c204.9,0,371.5-166.7,371.5-371.5
		C743.6,167.2,576.9,0.5,372,0.5z"/>
</g>
<g>
	<g>
		<path d="M63.3,338.5c-8.5-1.1-13.3-6.2-12.5-13.1c0.4-3.1,2.2-5.3,4.1-6.5l0.8,0.9c-1.9,1.3-3.3,3.2-3.6,5.7
			c-0.8,6.2,3.7,10.6,11.4,11.6s13.3-2.1,14.1-8.2c0.4-2.9-0.5-5.1-2.6-7.5l0.9-0.7c2.1,2.3,3.3,4.9,2.8,8.4
			C77.9,335.8,71.8,339.6,63.3,338.5z"/>
	</g>
	<g>
		<path d="M66.2,316c-8.4-1.7-12.9-7.2-11.6-13.5c1.2-6.3,7.5-9.8,15.9-8.1c8.4,1.7,13,7.3,11.8,13.6C81,314.2,74.6,317.6,66.2,316z
			 M70.2,295.7c-7.7-1.5-13.3,1.3-14.4,7c-1.1,5.7,3,10.4,10.7,11.9c7.7,1.5,13.4-1.3,14.6-7C82.2,302,77.9,297.2,70.2,295.7z"/>
	</g>
	<g>
		<path d="M59.1,283.8l0.6-2.1l17.5-1.2c2.2-0.2,4.4-0.3,6.6-0.5l0-0.2c-1.8-1.3-3.6-2.5-5.4-3.7l-14.3-10.1l0.6-2.1l26.2,7.4
			l-0.4,1.3l-18.3-5.1c-2.1-0.6-4.7-1.4-6.8-2.1l0,0.2l5.2,3.7l14.7,10.5l-0.4,1.3l-18,1.4l-6.4,0.4l0,0.2c2.2,0.5,4.8,1.2,6.9,1.8
			l18.3,5.1l-0.3,1.2L59.1,283.8z"/>
	</g>
	<g>
		<path d="M67.8,254.8l2.2-6.1c2.1-5.8,5.2-8.5,10.3-6.6c4.9,1.8,6.1,5.9,4,11.6l-1.8,5l11.3,4.1l-0.4,1.2L67.8,254.8z M83,253.8
			c2-5.5,1.2-8.8-3.2-10.4c-4.5-1.6-6.9,0.6-8.9,6.2l-1.6,4.4l12.1,4.4L83,253.8z"/>
	</g>
	<g>
		<path d="M76.1,232.7l3-6.9c2.2-4.9,5.3-7.2,9.9-5.2c4,1.7,5.1,5.3,3.7,9.6l15-1.9l-0.6,1.4l-14.9,1.8l-2.5,5.6l11.8,5.2l-0.5,1.2
			L76.1,232.7z M91,231.6c2-4.6,1.3-8-2.5-9.7c-3.9-1.7-6.5,0.2-8.5,4.8l-2.3,5.2l11,4.8L91,231.6z"/>
	</g>
	<g>
		<path d="M97,219.2c-7.6-4-10.2-10.7-7.2-16.3c3-5.7,10-7.2,17.6-3.2c7.6,4,10.4,10.7,7.3,16.4C111.6,221.8,104.5,223.2,97,219.2z
			 M106.7,200.9c-6.9-3.7-13.1-2.6-15.8,2.5c-2.7,5.1-0.2,10.8,6.8,14.5c6.9,3.7,13.2,2.7,16-2.4
			C116.3,210.4,113.6,204.6,106.7,200.9z"/>
	</g>
	<g>
		<path d="M99.6,186.3l1.2-1.8l17,4.1c2.1,0.5,4.3,1,6.4,1.5l0.1-0.1c-1.3-1.7-2.7-3.4-4-5.2l-10.6-13.9l1.2-1.8l22.8,14.8l-0.7,1.1
			l-15.9-10.3c-1.8-1.2-4-2.7-5.9-4l-0.1,0.1l3.9,5l10.9,14.4l-0.8,1.2l-17.6-4.1l-6.2-1.5l-0.1,0.1c1.9,1.1,4.2,2.6,6,3.7
			l15.9,10.3l-0.7,1L99.6,186.3z"/>
	</g>
	<g>
		<path d="M116.6,161.1l8.9-11.6l0.9,0.7l-8.1,10.5l8.7,6.7l6.8-8.8l0.9,0.7l-6.8,8.8l10.1,7.8l8.4-10.8l0.9,0.7l-9.2,11.9
			L116.6,161.1z"/>
	</g>
	<g>
		<path d="M135.4,139.8l-5.9,6.6l-0.9-0.8l12.6-14.1l0.9,0.8l-5.9,6.6l19.4,17.3l-0.9,1L135.4,139.8z"/>
	</g>
	<g>
		<path d="M145.9,126.9l0.9-0.9l19.3,19.2l-0.9,0.9L145.9,126.9z"/>
	</g>
	<g>
		<path d="M153.5,119.3l4.6-4.1c6.3-5.6,12.7-4.1,18.1,2c5.4,6,6.3,12.7,0,18.3l-4.6,4.1L153.5,119.3z M175.3,134.8
			c5.8-5.2,4.6-11.3-0.2-16.6c-4.8-5.4-10.6-7.1-16.4-1.9l-3.4,3.1l16.6,18.6L175.3,134.8z"/>
	</g>
	<g>
		<path d="M180.2,113.9c-5.1-6.9-4.6-14,0.6-17.8s12.1-2.2,17.2,4.7c5.1,6.9,4.7,14.1-0.5,18C192.4,122.5,185.3,120.8,180.2,113.9z
			 M196.9,101.6c-4.6-6.3-10.7-8-15.3-4.6s-4.8,9.7-0.2,16c4.6,6.3,10.8,8.1,15.4,4.7C201.5,114.3,201.5,107.9,196.9,101.6z"/>
	</g>
	<g>
		<path d="M207.4,106.7l0.3-1.2c2.9,0.9,6.1,0.7,8.9-1c3.7-2.3,4.9-5.8,3.1-8.7c-1.9-3.1-4.5-2.9-7.4-2.5l-4.6,0.6
			c-2.5,0.3-6.1,0.6-8.2-2.8c-2-3.3-0.6-7.3,3.2-9.6c2.8-1.7,5.8-1.7,8-1.1l-0.2,1.2c-2.2-0.7-4.7-0.5-7.1,1c-3.2,2-4.3,5.1-2.7,7.7
			c1.8,2.9,4.9,2.5,7,2.2l4.6-0.6c3.3-0.4,6.5-0.5,8.7,3.1c2.1,3.5,0.9,7.9-3.5,10.5C213.8,107.6,210.4,107.6,207.4,106.7z"/>
	</g>
	<g>
		<path d="M228.7,82.8c-3.6-7.8-1.8-14.6,4.5-17.5c2.8-1.3,5.7-0.9,7.6,0l-0.4,1.2c-2.1-0.9-4.4-1.1-6.7,0c-5.7,2.6-7,8.7-3.7,15.8
			c3.3,7.1,8.9,10.1,14.4,7.6c2.6-1.2,4.1-3.2,5-6.1l1.1,0.4c-0.9,3-2.4,5.4-5.6,6.9C238.7,93.7,232.3,90.5,228.7,82.8z"/>
	</g>
	<g>
		<path d="M249.4,73.2c-2.9-8.1-0.4-14.7,5.6-16.9c6-2.2,12.2,1.4,15.2,9.4c2.9,8.1,0.5,14.9-5.6,17.1S252.4,81.3,249.4,73.2z
			 M268.9,66.2c-2.7-7.4-8-10.7-13.4-8.7c-5.4,2-7.4,7.9-4.7,15.3c2.7,7.4,8,10.9,13.5,8.9S271.6,73.5,268.9,66.2z"/>
	</g>
	<g>
		<path d="M273.7,50.6l1.4-0.4l16.6,16.3L296,71l0.2,0c-0.7-2.5-1.4-4.9-2.1-7.4l-4.4-17.1l1.2-0.3l6.8,26.3l-1.4,0.4l-16.6-16.3
			l-4.4-4.4l-0.2,0c0.7,2.5,1.4,4.7,2,7.1l4.5,17.3l-1.2,0.3L273.7,50.6z"/>
	</g>
	<g>
		<path d="M321.5,68.8c-6,0.3-10.9-4.5-12-12.6c-1.1-8.5,2.7-14.5,9.1-15.4c6.4-0.9,11.7,3.9,12.8,12.4c1.1,8.2-2.4,14.2-8.4,15.4
			c1.6,2.7,4.3,4,7.7,3.5c1.2-0.2,2-0.4,2.7-0.7l0.5,1.2c-0.6,0.3-1.8,0.7-3,0.8C326.5,74,323.2,72,321.5,68.8z M330,53.4
			c-1-7.8-5.5-12.1-11.3-11.4c-5.7,0.8-8.9,6.2-7.9,13.9c1,7.8,5.6,12.4,11.3,11.6C327.9,66.8,331,61.2,330,53.4z"/>
	</g>
	<g>
		<path d="M338.4,56.3l-0.9-17l1.3-0.1l0.9,16.7c0.4,7.5,4.1,9.5,8.1,9.3c4-0.2,7.6-2.6,7.2-10.1l-0.9-16.7l1.2-0.1l0.9,17
			c0.4,8.4-4,10.9-8.4,11.1C343.5,66.7,338.9,64.7,338.4,56.3z"/>
	</g>
	<g>
		<path d="M364.7,38.3l1.3,0l-0.1,27.2l-1.3,0L364.7,38.3z"/>
	</g>
	<g>
		<path d="M375.1,38.4l14.6,0.7l-0.1,1.2l-13.3-0.6l-0.5,11l11.1,0.5l-0.1,1.2l-11.1-0.5l-0.6,12.8l13.7,0.6l-0.1,1.2l-15-0.7
			L375.1,38.4z"/>
	</g>
	<g>
		<path d="M397.5,39.7l1.4,0.2l9.7,21.2l2.5,5.7l0.2,0c0.2-2.6,0.4-5.1,0.7-7.6l2-17.5l1.2,0.1l-3.1,27l-1.4-0.2L401,47.4l-2.5-5.7
			l-0.2,0c-0.2,2.5-0.4,4.8-0.7,7.4l-2.1,17.8l-1.2-0.1L397.5,39.7z"/>
	</g>
	<g>
		<path d="M424.8,43.3l14.3,2.7l-0.2,1.1l-13-2.5l-2,10.8l10.9,2.1l-0.2,1.1l-10.9-2.1l-2.4,12.6l13.4,2.5l-0.2,1.1L419.8,70
			L424.8,43.3z"/>
	</g>
	<g>
		<path d="M438.8,70l1.1-0.7c1.3,2.7,3.8,4.9,7,5.7c4.2,1.1,7.5-0.5,8.4-3.9c0.9-3.5-1-5.2-3.4-7.1l-3.6-2.9c-2-1.6-4.7-3.9-3.7-7.8
			c1-3.8,4.8-5.5,9-4.4c3.2,0.8,5.3,2.9,6.4,5l-1,0.7c-1.1-2.1-3-3.7-5.7-4.4c-3.7-0.9-6.7,0.4-7.4,3.4c-0.8,3.3,1.6,5.2,3.3,6.5
			l3.6,2.9c2.6,2.1,4.8,4.3,3.8,8.4c-1,4-5.1,6.1-10,4.8C442.6,75.3,440.2,72.8,438.8,70z"/>
	</g>
	<g>
		<path d="M477,56.4l6.1,2.2c5.8,2.1,8.5,5.2,6.6,10.3c-1.8,4.9-5.9,6.1-11.6,4l-5-1.8l-4.1,11.3l-1.2-0.4L477,56.4z M478,71.7
			c5.5,2,8.8,1.2,10.4-3.2c1.6-4.5-0.6-6.9-6.2-8.9l-4.4-1.6L473.4,70L478,71.7z"/>
	</g>
	<g>
		<path d="M502.7,66.4l1.1,0.5l-2,28.8l-1.3-0.6l0.8-10.3l-10.2-4.4l-7,7.5l-1.2-0.5L502.7,66.4z M492,79.5l9.4,4.1l0.4-5.7
			c0.3-3.5,0.5-6.4,0.9-9.9l-0.2-0.1c-2.3,2.7-4.3,4.9-6.7,7.4L492,79.5z"/>
	</g>
	<g>
		<path d="M518.1,73.5l5.4,2.9c7.4,3.9,8.2,10.5,4.5,17.7s-9.8,10.3-17.2,6.4l-5.4-2.9L518.1,73.5z M511.1,99.3
			c6.8,3.6,12.2,0.4,15.6-5.9c3.4-6.3,2.9-12.4-3.9-16.1l-4.1-2.2l-11.7,22L511.1,99.3z"/>
	</g>
	<g>
		<path d="M541.1,86.1l12.3,7.8l-0.6,1l-11.2-7.1l-5.8,9.3l9.4,5.9l-0.6,1l-9.4-5.9l-6.8,10.8l11.6,7.3l-0.6,1l-12.7-8L541.1,86.1z"
			/>
	</g>
	<g>
		<path d="M550.5,108.2c5.1-6.9,12-8.6,17.5-4.5c2.5,1.9,3.5,4.5,3.7,6.7l-1.2,0.2c-0.2-2.3-1.1-4.4-3.2-5.9c-5-3.7-11-2-15.7,4.3
			c-4.6,6.3-4.6,12.7,0.3,16.3c2.3,1.7,4.7,2.1,7.8,1.4l0.2,1.2c-3.1,0.7-5.9,0.5-8.7-1.6C545.7,122.3,545.4,115.1,550.5,108.2z"/>
	</g>
	<g>
		<path d="M579.6,113.3l11.1,9.5l-0.7,0.9l-10.1-8.6l-7.1,8.3l8.5,7.2l-0.7,0.9l-8.5-7.2l-8.3,9.7l10.4,8.9l-0.7,0.9l-11.4-9.7
			L579.6,113.3z"/>
	</g>
	<g>
		<path d="M596.5,128.2l1,1l-5.5,22.6l-1.6,6l0.1,0.1c1.8-1.9,3.5-3.7,5.3-5.5l12.4-12.5l0.9,0.9L590,160l-1-1l5.5-22.6l1.6-6
			l-0.1-0.1c-1.7,1.9-3.3,3.6-5.1,5.4l-12.6,12.7l-0.9-0.9L596.5,128.2z"/>
	</g>
	<g>
		<path d="M625.4,159.3l0.7,0.9l-14.9,24.7l-0.9-1.1l5.4-8.8l-7-8.6l-9.7,3.5l-0.8-1L625.4,159.3z M609.8,166l6.5,7.9l3-4.9
			c1.8-3,3.4-5.5,5.4-8.4l-0.1-0.1c-3.2,1.4-6,2.4-9.3,3.6L609.8,166z"/>
	</g>
	<g>
		<path d="M635.8,172.6l3.5,5c4.8,6.9,2.5,13.1-4.1,17.7s-13.4,4.7-18.2-2.1l-3.5-5L635.8,172.6z M617.9,192.4
			c4.4,6.3,10.7,5.9,16.6,1.8c5.9-4.1,8.3-9.7,3.8-16.1l-2.6-3.8l-20.4,14.3L617.9,192.4z"/>
	</g>
	<g>
		<path d="M650.3,194l0.7,1.1l-23.1,14.3l-0.7-1.1L650.3,194z"/>
	</g>
	<g>
		<path d="M643.1,208c7.5-4.1,14.5-2.8,17.8,3.3c1.5,2.7,1.3,5.6,0.5,7.6l-1.2-0.3c0.8-2.1,0.8-4.5-0.4-6.7c-3-5.5-9.2-6.4-16-2.6
			c-6.9,3.8-9.5,9.6-6.6,14.9c1.4,2.5,3.4,3.8,6.5,4.5l-0.3,1.1c-3.1-0.7-5.5-2-7.3-5.1C632.9,218.8,635.6,212.1,643.1,208z"/>
	</g>
	<g>
		<path d="M654,228c7.8-3.6,14.6-1.8,17.5,4.5c1.3,2.8,0.9,5.7,0,7.6l-1.2-0.4c0.9-2.1,1.1-4.4,0.1-6.7c-2.6-5.7-8.7-7.1-15.8-3.8
			c-7.1,3.3-10.2,8.9-7.6,14.4c1.2,2.6,3.2,4.1,6.1,5l-0.4,1.1c-3-0.9-5.4-2.4-6.9-5.6C643,238.1,646.2,231.6,654,228z"/>
	</g>
	<g>
		<path d="M676.8,246.1l0.5,1.2L652,257.5l-0.5-1.2L676.8,246.1z"/>
	</g>
	<g>
		<path d="M667.3,258.7c8.1-2.7,14.8-0.1,16.8,6c2,6.1-1.7,12.2-9.8,14.9c-8.1,2.7-14.9,0.1-17-6
			C655.4,267.6,659.2,261.4,667.3,258.7z M673.9,278.3c7.4-2.5,10.9-7.7,9.1-13.2c-1.8-5.5-7.8-7.6-15.2-5.1
			c-7.4,2.5-11,7.8-9.2,13.3C660.4,278.8,666.5,280.8,673.9,278.3z"/>
	</g>
	<g>
		<path d="M689.4,283.2l0.3,1.4L673.2,301l-4.5,4.3l0,0.2c2.5-0.7,4.9-1.4,7.4-2l17.1-4.2l0.3,1.2l-26.4,6.5l-0.3-1.4l16.5-16.4
			l4.5-4.3l0-0.2c-2.5,0.7-4.7,1.3-7.2,1.9l-17.4,4.2l-0.3-1.2L689.4,283.2z"/>
	</g>
	<g>
		<path d="M695.4,310.1l2.4,14.4l-1.1,0.2l-2.2-13.1l-10.8,1.8l1.8,11l-1.1,0.2l-1.8-11l-12.6,2.1l2.2,13.5l-1.1,0.2l-2.5-14.8
			L695.4,310.1z"/>
	</g>
	<g>
		<path d="M675.1,332.4l1,0.8c-2.1,2.2-3.3,5.2-3,8.5c0.4,4.3,3.1,6.9,6.5,6.6c3.6-0.4,4.5-2.8,5.5-5.6l1.5-4.4
			c0.8-2.4,2.1-5.8,6.1-6.1c3.9-0.4,6.8,2.7,7.2,7c0.3,3.3-1,6-2.5,7.7l-1-0.7c1.6-1.7,2.5-4.1,2.2-6.8c-0.4-3.8-2.7-6.1-5.8-5.8
			c-3.4,0.3-4.4,3.3-5,5.3l-1.5,4.4c-1.1,3.1-2.4,6-6.6,6.4c-4.1,0.4-7.5-2.7-8-7.8C671.5,337.8,672.9,334.7,675.1,332.4z"/>
	</g>
</g>
<g>
	<path fill="#D9D9D9" d="M59.2,383.5c2.5,69.9,28,133.9,69,184.9h2.3c-41.3-50.8-67-114.9-69.5-184.9H59.2z"/>
</g>
<g>
	<path fill="#D9D9D9" d="M683,383.5c-2.5,70-28.2,134.1-69.5,184.9h2.3c41.1-50.9,66.5-115,69-184.9H683z"/>
</g>
<g>
	<g>
		<polygon fill="#F2B077" points="253,268.1 256.1,259.7 206.1,261.3 300.5,174.7 401.3,255.6 363.3,257.2 373,265 423.9,263.4 
			299.5,163.2 184,270 		"/>
	</g>
	<g>
		<g>
			<path fill="#F6D849" d="M403.3,294.6c-0.8-0.9-11-7.7-18.9-12.7l-3.4-2.2l4-0.6c1.9-0.3,4.1-0.6,5.8-0.9
				c-8.2-4.5-24.2-16.7-29.5-21.8c-2.9-2.8-5.3-5.6-7.7-8.4c-3.7-4.3-7.1-8.4-12.1-11.8l1.7-2.5c5.4,3.6,9,7.8,12.8,12.3
				c2.3,2.7,4.6,5.5,7.4,8.2c8.2,7.8,28.8,22.4,31.6,22.7c1.6,0.1,1.9,1.1,1.9,1.6c0,1.2,0,1.7-7.6,2.9c6.4,4.1,15.5,10.2,16.3,11.3
				L403.3,294.6z"/>
		</g>
	</g>
	<g>
		<g>
			<path fill="#F6D849" d="M260.4,311.4c-0.1-0.1-3-2.7-2.5-7.9c-2.6-0.9-5.9-2.2-7-5.6l2.9-0.9c0.6,2.1,3.2,3,5.5,3.8l1.9,0.7
				l-0.2,1.3c-0.8,4.3,1.3,6.4,1.4,6.4L260.4,311.4z"/>
		</g>
	</g>
	<g>
		<path fill="#F5B278" d="M289.2,321.6c2.5-0.3,10.9-2.5,16.2-9.1c1.6,1.6,3.7,2.2,3.7,2.2s-12.2,11.6-20,11.2
			C289.2,324.4,289.2,321.6,289.2,321.6z"/>
	</g>
	<g>
		<path fill="#F5B278" d="M317.4,302.1c2.5-0.4,10.9-2.7,16.1-9.3c1.6,1.5,3.8,2.1,3.8,2.1s-12,11.8-19.8,11.6
			C317.5,304.9,317.4,302.1,317.4,302.1z"/>
	</g>
	<g>
		<polygon fill="#F5B278" points="311.7,310.3 315.2,308.7 325.8,344.1 333.9,339.4 335.8,342.2 323.8,349.1 		"/>
	</g>
	<g>
		<path fill="#F6D849" d="M289.2,568.4h190l7.2-41.7c0,0,12.6,35.6,19.3,41.7h54.4c-23.1-30.3-42.2-75.4-40.7-111l-50.8,23.1
			c-11,3.4-61.8,14.8-61.8,14.8s-20.3,1.3-33.3-4.5c-3.8-1.7-7.4-4.6-3.8-7.1s43.6-29.5,43.6-29.5c0.8-0.8,0.5-0.7-0.4-1.5
			c-0.9-0.9-9.1-8.5-9.1-8.5c-1.8-1.5-3.4-6.2,0.6-6.3c4-0.1,45.9-1.9,45.9-1.9c0.6-0.1,24.5-27.5,25-28.1
			c0.6-0.7-34.9-2.4-35.5-2.9c-0.7-0.6-1.1-1.3-0.2-2.8c0.9-1.5,14.8-15.9,15.7-16.1c0.9-0.2,1.9,0.2,2.7,0.6
			c0.8,0.4,9.2,4.4,13.4,2.7c8.6-3.3,16.3-22.8,18-25.7c0,0,6.7-0.3,7.1,0c0.4,0.3,3.7-1.2,4.5-2.2c0.8-0.9,0.4-6.5,0.4-8.4
			c0-1.9-7.4-44.4-7.4-44.4s-12.1-21.3-30.9-23.2s-88.4-8.5-68.1,82.8c0,0,3.3,6,4.3,6.6c0.9,0.7-8.8,28.9-8.8,28.9l-38.3,5.5
			c0,0-17.1-2.1-21.9-0.9s-14.6,6.4-14.4,16.3c0.2,9.8,0.4,27.5,0.4,27.5s56.1,42.9,58.8,43.7c24.3,6.5,46.5,1.8,47.6,1.9
			c1.1,0.1,3.8,2.3,2.3,4c-1.5,1.8-11.5,11.2-12,11.7c-0.5,0.5-0.1,1.4,0.6,2.1s30.9,33.6,30.9,33.6c0.8,1,1.4,4.4-1.4,5.2
			s-35.7,3.5-37.9,3.7c-2.1,0.1-11.7-0.8-17.2-2.1c-5.4-1.4-15.2-5-25-7.5s-64.8-15.2-64.8-15.2L289.2,568.4z"/>
	</g>
	<g>
		<path fill="#F2B077" d="M352.5,412l-0.9-6.1l36-4.5l9.2-25.2c0,0-9.4-6.6-8.9-41.1s18.1-58.5,76.5-52.4
			c19.3,2.2,30.4,19.6,32.3,24.1c1.9,4.5,7.4,41.6,7.5,42.5c0.1,0.9,0.6,9.5,0.6,9.5s-0.2,4.8-2.9,6.3c-2.7,1.5-10.2,0.7-10.2,0.7
			s-10.9,24.6-17.3,26.1c-8.1,2-17.9-2.7-17.9-2.7l-12.1,12.6l33.8,2.7l-4.4,5.3l-36.1-2.4c0,0-3.6-3.6-1-6.3
			c2.6-2.7,17-17.8,17-17.8s2-1.9,5.5,0.2c1.2,0.7,7,4.2,12.3,2.8c5.3-1.3,5-4.6,6.6-7c1.6-2.4,8.5-16.4,9.3-19
			c0.8-2.7,5.9-0.8,7.8-0.2c2.3,0.8,6.3,4,1.9-21c-0.7-3.9-3.7-23.8-5.6-29.2c-2.1-6-12.1-20.1-27.1-21.4
			c-7.2-0.8-93.1-17.8-64.8,82.5c2.3,1.5,3.9,3,3.2,5.1c-0.6,2.1-8.9,26.8-8.9,26.8s-0.2,3.2-2.7,3.8
			C388.4,407.4,352.5,412,352.5,412z"/>
	</g>
	<g>
		<path fill="#F2B077" d="M318.8,454l-4.8-3l-0.9-28.6c-0.6-7.8,6.4-18.8,19.5-18s13.7,2.2,18.9,1.5c5.3-0.7,0.9,6.1,0.9,6.1
			l-13.6-1.1c-10.4-0.4-20.6,1.7-20.1,12.3S318.8,454,318.8,454z"/>
	</g>
	<g>
		<g>
			<path fill="#F6D849" d="M298.7,534.9c-24.7-5.7-54.9-43.5-61-58l1.4-0.6c6.1,14.2,35.8,51.5,60,57.1L298.7,534.9z"/>
		</g>
	</g>
	<g>
		<g>
			<path fill="#F6D849" d="M514.6,461.4L514,460c18.4-7.5,29.5-24.3,33.2-33.1l1.4,0.6C543.6,439.6,531.1,454.7,514.6,461.4z"/>
		</g>
	</g>
	<g>
		<g>
			<path fill="#F6D849" d="M344.6,385.8c-2.6,0-5.2-0.4-7.2-1.1l1.1-2.8c2.5,1,6.5,1.2,9.6,0.6c1.1-0.2,3.6-4.3,5.2-7.1
				c2-3.5,4.1-7.1,6.5-9.3l2.1,2.2c-2,1.9-4.1,5.4-5.9,8.6c-2.9,5-4.8,8.1-7.2,8.5C347.4,385.7,346,385.8,344.6,385.8z"/>
		</g>
	</g>
	<g>
		<path fill="#F5B278" d="M329,362.6c2.5-0.3,12.4-3.2,17.7-9.8c1.6,1.6,2.3,0.7,2.3,0.7s-12.2,11.6-20,11.2
			C329,363.3,329,362.6,329,362.6z"/>
	</g>
</g>
<g>
	<g>
		<g>
			<path fill="#F9A121" d="M315,608.3v14.3c0,1.7,0.2,2.8,0.6,3.2c0.5,0.6,1.3,0.9,2.3,0.9h1.1v0.7h-11.7v-0.7h1
				c1.2,0,2-0.4,2.5-1.2c0.3-0.4,0.4-1.4,0.4-2.9v-24c0-1.7-0.2-2.8-0.5-3.2c-0.5-0.6-1.3-0.9-2.4-0.9h-1v-0.7h10.1
				c2.5,0,4.4,0.3,5.8,0.8c1.4,0.5,2.6,1.4,3.6,2.5c1,1.2,1.4,2.6,1.4,4.3c0,2.2-0.7,4.1-2.2,5.5c-1.5,1.4-3.6,2.1-6.2,2.1
				c-0.7,0-1.4,0-2.2-0.1C316.7,608.6,315.8,608.5,315,608.3z M315,607.1c0.7,0.1,1.4,0.2,1.9,0.3c0.6,0.1,1,0.1,1.4,0.1
				c1.4,0,2.6-0.5,3.6-1.6c1-1.1,1.5-2.5,1.5-4.2c0-1.2-0.2-2.3-0.7-3.3c-0.5-1-1.2-1.8-2.1-2.3c-0.9-0.5-1.9-0.8-3-0.8
				c-0.7,0-1.5,0.1-2.6,0.4V607.1z"/>
		</g>
		<g>
			<path fill="#F9A121" d="M337.4,618.2c-1.9,1.5-3.1,2.3-3.6,2.6c-0.7,0.3-1.5,0.5-2.4,0.5c-1.3,0-2.3-0.4-3.1-1.3
				c-0.8-0.9-1.2-2-1.2-3.4c0-1.4,0.3-2.7,1-3.9c0.7-1,1.8-1.9,3.1-2.6c1.3-0.7,3.4-1.6,6.2-2.5v-0.7c0-1-0.3-1.9-0.9-2.6
				c-0.6-0.7-1.4-1-2.6-1c-0.9,0-1.5,0.2-2,0.7c-0.5,0.4-0.7,1-0.7,1.6l0,1.2c0,0.6-0.2,1.1-0.5,1.4c-0.3,0.3-0.7,0.5-1.3,0.5
				c-0.5,0-0.9-0.2-1.2-0.5c-0.3-0.4-0.5-0.8-0.5-1.4c0-1.2,0.6-2.2,1.8-3.2c1.2-1,2.9-1.4,5-1.4c1.6,0,3,0.3,4,0.8
				c0.8,0.4,1.4,1.1,1.8,2c0.2,0.6,0.4,1.8,0.4,3.5v6.3c0,1.8,0,2.8,0.1,3.2c0.1,0.4,0.2,0.7,0.3,0.8c0.2,0.1,0.3,0.2,0.5,0.2
				c0.2,0,0.4-0.1,0.6-0.2c0.3-0.2,0.8-0.6,1.6-1.4v1.1c-1.5,2-2.9,3-4.3,3c-0.7,0-1.2-0.2-1.6-0.7
				C337.6,620.1,337.4,619.3,337.4,618.2z M337.4,616.9v-8.2c-2,0.8-3.4,1.4-3.9,1.7c-1.4,1-2.3,1.9-2.7,2.8
				c-0.4,0.8-0.6,1.7-0.6,2.5c0.2,0.9,0.6,1.7,1.2,2.4c0.6,0.6,1.2,1,2,1C334.3,618.9,335.7,618.3,337.4,616.9z"/>
		</g>
		<g>
			<path fill="#F9A121" d="M358.7,619c-0.9,0.9-1.8,1.6-2.6,2c-0.9,0.4-1.8,0.6-2.8,0.6c-2,0-3.8-0.8-5.3-2.5
				c-1.5-1.7-2.3-3.9-2.3-6.5c0-2.6,0.8-5,2.4-7c1.6-2,3.7-3.1,6.4-3.1c1.6,0,3,0.4,4.2,1.1v-11.3c0-2.1,0-3.4-0.1-3.9
				c-0.1-0.5-0.3-0.8-0.5-1c-0.2-0.2-0.5-0.3-0.8-0.3s-0.8,0.1-1.4,0.3l-0.3-0.7l5.5-2.3h0.9v31.9c0,1.5,0.2,2.7,0.6,3.5
				c0.5,0.4,1.3,0.8,2.4,1v0.8h-5.4h-0.9V619z M358.7,617.6v-9.4c-0.1-0.9-0.3-1.7-0.7-2.5c-0.4-0.7-0.9-1.3-1.6-1.7s-1.3-0.6-2-0.6
				c-1.2,0-2.2,0.5-3.1,1.6c-1.2,1.4-1.9,3.4-1.9,6c0,2.7,0.6,4.8,1.8,6.2c1.2,1.4,2.5,2.2,4,2.2
				C356.4,619.4,357.6,618.8,358.7,617.6z"/>
		</g>
		<g>
			<path fill="#F9A121" d="M370.9,602.1v4.1c1.5-2.8,3.1-4.1,4.8-4.1c0.7,0,1.4,0.2,1.8,0.7c0.5,0.4,0.7,1,0.7,1.6
				c0,0.5-0.2,1-0.5,1.3s-0.8,0.5-1.3,0.5c-0.5,0-1-0.2-1.6-0.7c-0.6-0.5-1-0.7-1.3-0.7c-0.2,0-0.5,0.1-0.8,0.4
				c-0.9,0.7-1.5,1.6-1.9,2.7V621c0,1,0.1,1.8,0.4,2.3c0.2,0.4,0.5,0.7,0.9,0.9c0.5,0.2,1.1,0.4,1.9,0.4v0.7h-9.5v-0.7
				c0.9,0,1.6-0.1,2.1-0.4c0.3-0.2,0.6-0.5,0.7-1v-15.1c0-1,0-1.8-0.1-2.2c-0.1-0.4-0.2-0.7-0.5-0.9c-0.2-0.2-0.5-0.3-0.9-0.3
				c-0.4,0-0.9,0.1-1.4,0.3l-0.2-0.7l5.6-2.2H370.9z"/>
		</g>
		<g>
			<path fill="#F9A121" d="M381.8,612.6c0.2,1,0.5,2.2,1,3.6c1.7,2.8,3.8,4.3,6.4,4.3c1.2,0,2.3-0.4,3.1-1.2c0.9-0.8,1.6-2,2.2-3.6
				l0.7,0.4c-0.3,1.8-1.1,3.5-2.5,5c-1.4,1.5-3.1,2.3-5.1,2.3c-2.8-0.2-5.1-1.8-6.9-4.6c-0.9-2.1-1.4-4.4-1.4-7
				c0-3.2,0.8-5.6,2.4-7.4c1.6-1.8,3.7-2.6,6.1-2.6c2.1,0,3.7,0.6,5,1.7c1.3,1.1,1.9,2.8,1.9,5.1L381.8,612.6z M381.9,610.8l8.9-2.6
				c-0.1-1.2-0.2-2-0.5-2.5c-0.3-0.7-0.8-1.3-1.5-1.8c-0.7-0.4-1.4-0.7-2.1-0.7c-1.1,0-2.1,0.4-3,1.3
				C382.9,605.4,382.2,607.5,381.9,610.8z"/>
		</g>
		<g>
			<path fill="#F9A121" d="M422.1,609.2l-6.9-11v18c0.1,1.8,0.2,2.9,0.5,3.3c0.4,0.6,0.9,0.9,1.5,0.9h0.7v0.7h-8.7v-0.7h0.8
				c1.1,0,1.8-0.5,2-1.5v-21.3c0-1.1-0.2-1.9-0.6-2.4c-0.4-0.4-0.9-0.6-1.5-0.7h-0.7v-0.7h5.9l7.6,12.2l8.4-12.2h6.3v0.6h-0.8
				c-1,0-1.6,0.3-2,1c-0.2,0.4-0.4,1.4-0.4,3v24.5c0,1.7,0.2,2.7,0.5,3.1c0.6,0.9,1.5,1.2,2.6,1l0.1,0.4c-1.9,0.7-3.5,0.4-4.8-0.7
				c-1-1-1.5-2.3-1.5-3.9v-24.9l-7.8,11.3H422.1z"/>
		</g>
		<g>
			<path fill="#F9A121" d="M443.8,602v14.9c0,1.2,0.1,1.9,0.2,2.3c0.2,0.4,0.4,0.7,0.7,0.9c0.3,0.2,0.9,0.3,1.8,0.3v0.7h-9v-0.7
				c0.9,0,1.5-0.1,1.8-0.3c0.3-0.2,0.5-0.5,0.7-0.9c0.2-0.4,0.3-1.2,0.3-2.3v-9.6l-0.2-1.4c-0.1-0.4-0.3-0.7-0.5-0.9
				c-0.2-0.2-0.5-0.2-0.8-0.2c-0.4,0-0.8,0.1-1.4,0.3v-0.8l5.3-2.2H443.8z M441.4,595.4c0.6,0,1,0.2,1.4,0.6
				c0.4,0.4,0.6,0.9,0.6,1.5c0,0.6-0.2,1-0.6,1.4s-0.9,0.6-1.4,0.6c-0.6,0-1.1-0.2-1.5-0.6c-0.4-0.4-0.6-0.9-0.6-1.4
				c0-0.6,0.2-1.1,0.6-1.5C440.3,595.6,440.8,595.4,441.4,595.4z"/>
		</g>
		<g>
			<path fill="#F9A121" d="M458.2,601v6.2h-0.7c-0.5-1.3-1.1-2.3-1.9-3c-0.8-0.7-1.8-1.1-3.1-1.1c-0.9,0-1.7,0.3-2.3,0.8
				c-0.6,0.5-0.9,1.1-0.9,1.7c0,0.7,0.2,1.4,0.6,1.9c0.4,0.6,1.7,1.8,3.8,3.8l3.8,3.3c1.6,1.3,2.4,3,2.4,5.2c0,1.7-0.6,3-1.9,4.1
				c-1.3,1-2.7,1.6-4.3,1.6c-1.1,0-2.4-0.2-3.9-0.6c-0.4-0.1-0.8-0.2-1.1-0.2c-0.3,0-0.5,0.4-0.7,1.2h-0.7v-6.4h0.7
				c0.4,1.6,1.1,2.8,2.1,3.6c1.1,0.8,2.3,1.2,3.6,1.2c0.9,0,1.7-0.3,2.3-0.8c0.6-0.6,0.9-1.2,0.9-2c0-0.9-0.3-1.7-1-2.3
				c-0.7-0.6-1.7-1.6-3.1-3c-1.4-1.3-3.1-3.3-5-5.9c-0.6-0.7-0.9-1.7-0.9-2.9c0-1.5,0.5-2.8,1.6-3.8c1-1,2.4-1.5,4.1-1.5
				c0.7,0,1.6,0.2,2.6,0.5c0.7,0.2,1.1,0.3,1.4,0.3s0.4,0,0.5-0.1c0.1-0.1,0.3-0.6,0.4-1.5H458.2z"/>
		</g>
		<g>
			<path fill="#F9A121" d="M463.5,612.6c0.2,1,0.5,2.2,1,3.6c1.7,2.8,3.8,4.3,6.4,4.3c1.2,0,2.3-0.4,3.1-1.2c0.9-0.8,1.6-2,2.2-3.6
				l0.7,0.4c-0.3,1.8-1.1,3.5-2.5,5c-1.4,1.5-3.1,2.3-5.1,2.3c-2.8-0.2-5.1-1.8-6.9-4.6c-0.9-2.1-1.4-4.4-1.4-7
				c0-3.2,0.8-5.6,2.4-7.4c1.6-1.8,3.7-2.6,6.1-2.6c2.1,0,3.7,0.6,5,1.7c1.3,1.1,1.9,2.8,1.9,5.1L463.5,612.6z M463.6,610.8l8.9-2.6
				c-0.1-1.2-0.2-2-0.5-2.5c-0.3-0.7-0.8-1.3-1.5-1.8c-0.7-0.4-1.4-0.7-2.1-0.7c-1.1,0-2.1,0.4-3,1.3
				C464.5,605.4,463.9,607.5,463.6,610.8z"/>
		</g>
		<g>
			<path fill="#F9A121" d="M484.1,602.1v4.1c1.5-2.8,3.1-4.1,4.8-4.1c0.7,0,1.4,0.2,1.8,0.7c0.5,0.4,0.7,1,0.7,1.6
				c0,0.5-0.2,1-0.5,1.3s-0.8,0.5-1.3,0.5c-0.5,0-1-0.2-1.6-0.7c-0.6-0.5-1-0.7-1.3-0.7c-0.2,0-0.5,0.1-0.8,0.4
				c-0.9,0.7-1.5,1.6-1.9,2.7V621c0,1,0.1,1.8,0.4,2.3c0.2,0.4,0.5,0.7,0.9,0.9c0.5,0.2,1.1,0.4,1.9,0.4v0.7h-9.5v-0.7
				c0.9,0,1.6-0.1,2.1-0.4c0.3-0.2,0.6-0.5,0.7-1v-15.1c0-1,0-1.8-0.1-2.2c-0.1-0.4-0.2-0.7-0.5-0.9c-0.2-0.2-0.5-0.3-0.9-0.3
				c-0.4,0-0.9,0.1-1.4,0.3l-0.2-0.7l5.6-2.2H484.1z"/>
		</g>
		<g>
			<path fill="#F9A121" d="M499.2,602v14.9c0,1.2,0.1,1.9,0.2,2.3c0.2,0.4,0.4,0.7,0.7,0.9c0.3,0.2,0.9,0.3,1.8,0.3v0.7h-9v-0.7
				c0.9,0,1.5-0.1,1.8-0.3c0.3-0.2,0.5-0.5,0.7-0.9c0.2-0.4,0.3-1.2,0.3-2.3v-9.6l-0.2-1.4c-0.1-0.4-0.3-0.7-0.5-0.9
				c-0.2-0.2-0.5-0.2-0.8-0.2c-0.4,0-0.8,0.1-1.4,0.3v-0.8l5.3-2.2H499.2z M496.8,595.4c0.6,0,1,0.2,1.4,0.6
				c0.4,0.4,0.6,0.9,0.6,1.5c0,0.6-0.2,1-0.6,1.4s-0.9,0.6-1.4,0.6c-0.6,0-1.1-0.2-1.5-0.6c-0.4-0.4-0.6-0.9-0.6-1.4
				c0-0.6,0.2-1.1,0.6-1.5C495.7,595.6,496.2,595.4,496.8,595.4z"/>
		</g>
		<g>
			<path fill="#F9A121" d="M520,615.9c-0.5,2.8-1.6,4.9-3.2,6.4c-1.6,1.5-3.4,2.2-5.3,2.2c-2.3,0-4.3-1-6-3s-2.5-4.7-2.5-8.2
				c0-3.3,0.9-6,2.8-8.1c1.9-2.1,4.1-3.1,6.8-3.1c2,0,3.6,0.5,4.9,1.6c1.3,1.1,1.9,2.2,1.9,3.4c0,0.6-0.2,1.1-0.5,1.4
				c-0.4,0.4-0.9,0.5-1.5,0.5c-0.9,0-1.5-0.3-1.9-0.9c-0.3-0.3-0.4-0.9-0.5-1.8c-0.1-0.9-0.4-1.6-0.9-2.1c-0.5-0.5-1.2-0.7-2.2-0.7
				c-1.4,0-2.6,0.6-3.5,1.7c-1.2,1.5-2,3.4-2.3,5.6c-0.3,3.2,0.1,5.8,1.4,7.7c1.3,2,3.1,3.1,5.5,3.4c1.9-0.3,3.2-1.3,4-2.8
				c0.8-0.7,1.6-2,2.4-3.8L520,615.9z"/>
		</g>
		<g>
			<path fill="#F9A121" d="M530.2,602.3c2.4,0,4.2,0.7,5.6,2c2,2.4,3,4.7,3,6.8c0,2.3-0.6,4.4-1.9,6.3c-0.9,1.4-2.6,2.5-5,3.3
				c-0.9,0.2-1.7,0.3-2.3,0.3c-3.7,0-6.5-2-8.3-5.9c-0.4-1.2-0.6-2.3-0.6-3.6v-0.3c0-2.8,1.1-5.1,3.3-6.9c0.9-0.5,1.9-0.8,2.9-0.8
				C527.8,602.8,528.8,602.3,530.2,602.3z M528.7,606.1c0.5-0.2,0.8-0.3,1.1-0.3c0.4,0,0.7,0.3,0.8,0.8c0,0.4-0.2,0.6-0.7,0.7
				l-0.7,0.1c-1.5-0.1-2.3-1-2.5-2.9c-0.6,0.2-1.2,0.7-1.7,1.4c-0.8,1.7-1.2,3.6-1.2,5.6c0,3.2,0.9,5.7,2.8,7.5c0.9,0.7,1.9,1,2.9,1
				c1.9,0,3.4-0.8,4.6-2.3c1.1-1.9,1.7-3.8,1.7-5.8v-0.2c-0.1-2.4-0.7-4.5-1.9-6.3c-1.2-1.2-2.5-1.9-4.1-2.1c-1.4,0-2.1,0.2-2.1,0.7
				C527.5,605.1,527.9,605.8,528.7,606.1z"/>
		</g>
		<g>
			<path fill="#F9A121" d="M545.6,602.1v4.1c1.5-2.8,3.1-4.1,4.8-4.1c0.7,0,1.4,0.2,1.8,0.7c0.5,0.4,0.7,1,0.7,1.6
				c0,0.5-0.2,1-0.5,1.3c-0.3,0.4-0.8,0.5-1.3,0.5c-0.5,0-1-0.2-1.6-0.7c-0.6-0.5-1-0.7-1.3-0.7c-0.2,0-0.5,0.1-0.8,0.4
				c-0.9,0.7-1.5,1.6-1.9,2.7V621c0,1,0.1,1.8,0.4,2.3c0.2,0.4,0.5,0.7,0.9,0.9c0.5,0.2,1.1,0.4,1.9,0.4v0.7h-9.5v-0.7
				c0.9,0,1.6-0.1,2.1-0.4c0.3-0.2,0.6-0.5,0.7-1v-15.1c0-1,0-1.8-0.1-2.2c-0.1-0.4-0.2-0.7-0.5-0.9c-0.2-0.2-0.5-0.3-0.9-0.3
				c-0.4,0-0.9,0.1-1.4,0.3l-0.2-0.7l5.6-2.2H545.6z"/>
		</g>
		<g>
			<path fill="#F9A121" d="M567.6,619c-0.9,0.9-1.8,1.6-2.6,2c-0.9,0.4-1.8,0.6-2.8,0.6c-2,0-3.8-0.8-5.3-2.5
				c-1.5-1.7-2.3-3.9-2.3-6.5c0-2.6,0.8-5,2.4-7c1.6-2,3.7-3.1,6.4-3.1c1.6,0,3,0.4,4.2,1.1v-11.3c0-2.1,0-3.4-0.1-3.9
				c-0.1-0.5-0.3-0.8-0.5-1c-0.2-0.2-0.5-0.3-0.8-0.3s-0.8,0.1-1.4,0.3l-0.3-0.7l5.5-2.3h0.9v31.9c0,1.5,0.2,2.7,0.6,3.5
				c0.5,0.4,1.3,0.8,2.4,1v0.8h-5.4h-0.9V619z M567.6,617.6v-9.4c-0.1-0.9-0.3-1.7-0.7-2.5c-0.4-0.7-0.9-1.3-1.6-1.7
				c-0.7-0.4-1.3-0.6-2-0.6c-1.2,0-2.2,0.5-3.1,1.6c-1.2,1.4-1.9,3.4-1.9,6c0,2.7,0.6,4.8,1.8,6.2c1.2,1.4,2.5,2.2,4,2.2
				C565.3,619.4,566.5,618.8,567.6,617.6z"/>
		</g>
		<g>
			<path fill="#F9A121" d="M580.9,602v14.9c0,1.2,0.1,1.9,0.2,2.3c0.2,0.4,0.4,0.7,0.7,0.9c0.3,0.2,0.9,0.3,1.8,0.3v0.7h-9v-0.7
				c0.9,0,1.5-0.1,1.8-0.3c0.3-0.2,0.5-0.5,0.7-0.9c0.2-0.4,0.3-1.2,0.3-2.3v-9.6l-0.2-1.4c-0.1-0.4-0.3-0.7-0.5-0.9
				c-0.2-0.2-0.5-0.2-0.8-0.2c-0.4,0-0.8,0.1-1.4,0.3v-0.8l5.3-2.2H580.9z M578.5,595.4c0.6,0,1,0.2,1.4,0.6
				c0.4,0.4,0.6,0.9,0.6,1.5c0,0.6-0.2,1-0.6,1.4c-0.4,0.4-0.9,0.6-1.4,0.6c-0.6,0-1.1-0.2-1.5-0.6c-0.4-0.4-0.6-0.9-0.6-1.4
				c0-0.6,0.2-1.1,0.6-1.5C577.4,595.6,577.9,595.4,578.5,595.4z"/>
		</g>
		<g>
			<path fill="#F9A121" d="M593.7,602.3c2.4,0,4.2,0.7,5.6,2c2,2.4,3,4.7,3,6.8c0,2.3-0.6,4.4-1.9,6.3c-0.9,1.4-2.6,2.5-5,3.3
				c-0.9,0.2-1.7,0.3-2.3,0.3c-3.7,0-6.5-2-8.3-5.9c-0.4-1.2-0.6-2.3-0.6-3.6v-0.3c0-2.8,1.1-5.1,3.3-6.9c0.9-0.5,1.9-0.8,2.9-0.8
				C591.3,602.8,592.3,602.3,593.7,602.3z M592.2,606.1c0.5-0.2,0.8-0.3,1.1-0.3c0.4,0,0.7,0.3,0.8,0.8c0,0.4-0.2,0.6-0.7,0.7
				l-0.7,0.1c-1.5-0.1-2.3-1-2.5-2.9c-0.6,0.2-1.2,0.7-1.7,1.4c-0.8,1.7-1.2,3.6-1.2,5.6c0,3.2,0.9,5.7,2.8,7.5c0.9,0.7,1.9,1,2.9,1
				c1.9,0,3.4-0.8,4.6-2.3c1.1-1.9,1.7-3.8,1.7-5.8v-0.2c-0.1-2.4-0.7-4.5-1.9-6.3c-1.2-1.2-2.5-1.9-4.1-2.1c-1.4,0-2.1,0.2-2.1,0.7
				C591.1,605.1,591.4,605.8,592.2,606.1z"/>
		</g>
		<g>
			<path fill="#F9A121" d="M614.1,601v6.2h-0.7c-0.5-1.3-1.1-2.3-1.9-3c-0.8-0.7-1.8-1.1-3.1-1.1c-0.9,0-1.7,0.3-2.3,0.8
				c-0.6,0.5-0.9,1.1-0.9,1.7c0,0.7,0.2,1.4,0.6,1.9c0.4,0.6,1.7,1.8,3.8,3.8l3.8,3.3c1.6,1.3,2.4,3,2.4,5.2c0,1.7-0.6,3-1.9,4.1
				c-1.3,1-2.7,1.6-4.3,1.6c-1.1,0-2.4-0.2-3.9-0.6c-0.4-0.1-0.8-0.2-1.1-0.2c-0.3,0-0.5,0.4-0.7,1.2h-0.7v-6.4h0.7
				c0.4,1.6,1.1,2.8,2.1,3.6c1.1,0.8,2.3,1.2,3.6,1.2c0.9,0,1.7-0.3,2.3-0.8c0.6-0.6,0.9-1.2,0.9-2c0-0.9-0.3-1.7-1-2.3
				c-0.7-0.6-1.7-1.6-3.1-3c-1.4-1.3-3.1-3.3-5-5.9c-0.6-0.7-0.9-1.7-0.9-2.9c0-1.5,0.5-2.8,1.6-3.8c1-1,2.4-1.5,4.1-1.5
				c0.7,0,1.6,0.2,2.6,0.5c0.7,0.2,1.1,0.3,1.4,0.3c0.2,0,0.4,0,0.5-0.1c0.1-0.1,0.3-0.6,0.4-1.5H614.1z"/>
		</g>
		<g>
			<path fill="#F9A121" d="M626.1,602.3c2.4,0,4.2,0.7,5.6,2c2,2.4,3,4.7,3,6.8c0,2.3-0.6,4.4-1.9,6.3c-0.9,1.4-2.6,2.5-5,3.3
				c-0.9,0.2-1.7,0.3-2.3,0.3c-3.7,0-6.5-2-8.3-5.9c-0.4-1.2-0.6-2.3-0.6-3.6v-0.3c0-2.8,1.1-5.1,3.3-6.9c0.9-0.5,1.9-0.8,2.9-0.8
				C623.7,602.8,624.8,602.3,626.1,602.3z M624.6,606.1c0.5-0.2,0.8-0.3,1.1-0.3c0.4,0,0.7,0.3,0.8,0.8c0,0.4-0.2,0.6-0.7,0.7
				l-0.7,0.1c-1.5-0.1-2.3-1-2.5-2.9c-0.6,0.2-1.2,0.7-1.7,1.4c-0.8,1.7-1.2,3.6-1.2,5.6c0,3.2,0.9,5.7,2.8,7.5c0.9,0.7,1.9,1,2.9,1
				c1.9,0,3.4-0.8,4.6-2.3c1.1-1.9,1.7-3.8,1.7-5.8v-0.2c-0.1-2.4-0.7-4.5-1.9-6.3c-1.2-1.2-2.5-1.9-4.1-2.1c-1.4,0-2.1,0.2-2.1,0.7
				C623.5,605.1,623.9,605.8,624.6,606.1z"/>
		</g>
	</g>
	<g>
		<g>
			<path fill="#908F8F" d="M134.6,623c-2.5,2.4-6.1,3.6-10.8,3.6c-3.3,0-6.6-1.4-9.8-4.1c-3-2.5-4.5-6.7-4.5-12.4
				c0-4.9,1.4-8.8,4.2-11.9c2.8-3.1,6.2-4.6,10.2-4.6c3,0,5.4,0.7,7.2,2.1c1.6,1.4,2.4,2.9,2.4,4.4c0,0.9-0.2,1.6-0.7,2.2
				c-0.6,0.6-1.5,0.9-2.8,0.9c-1.3,0-2.1-0.8-2.4-2.3c0-1.4,0.4-2.2,1.2-2.5c0-0.6-0.6-1.2-1.6-1.7c-1.3-0.9-2.7-1.3-4.3-1.3
				c-2,0-3.9,1-5.8,2.9c-2.3,2.6-3.4,6.1-3.4,10.2c0,5.6,1.2,9.6,3.7,12.1c2.5,2.6,5.4,3.8,8.7,3.8c3.1,0,5.7-0.7,7.9-2.2L134.6,623
				z"/>
		</g>
		<g>
			<path fill="#908F8F" d="M144.5,602.3c2.4,0,4.2,0.7,5.6,2c2,2.4,3,4.7,3,6.8c0,2.3-0.6,4.4-1.9,6.3c-0.9,1.4-2.6,2.5-5,3.3
				c-0.9,0.2-1.7,0.3-2.3,0.3c-3.7,0-6.5-2-8.3-5.9c-0.4-1.2-0.6-2.3-0.6-3.6v-0.3c0-2.8,1.1-5.1,3.3-6.9c0.9-0.5,1.9-0.8,2.9-0.8
				C142.1,602.8,143.2,602.3,144.5,602.3z M143,606.1c0.5-0.2,0.8-0.3,1.1-0.3c0.4,0,0.7,0.3,0.8,0.8c0,0.4-0.2,0.6-0.7,0.7
				l-0.7,0.1c-1.5-0.1-2.3-1-2.5-2.9c-0.6,0.2-1.2,0.7-1.7,1.4c-0.8,1.7-1.2,3.6-1.2,5.6c0,3.2,0.9,5.7,2.8,7.5c0.9,0.7,1.9,1,2.9,1
				c1.9,0,3.4-0.8,4.6-2.3c1.1-1.9,1.7-3.8,1.7-5.8v-0.2c-0.1-2.4-0.7-4.5-1.9-6.3c-1.2-1.2-2.5-1.9-4.1-2.1c-1.4,0-2.1,0.2-2.1,0.7
				C141.9,605.1,142.3,605.8,143,606.1z"/>
		</g>
		<g>
			<path fill="#908F8F" d="M159.9,606c1.4-1.4,2.1-2.1,2.4-2.3c0.6-0.5,1.3-0.9,2-1.2c0.7-0.3,1.4-0.4,2.1-0.4c1.2,0,2.2,0.3,3,1
				c0.8,0.7,1.6,1.6,2.2,2.9c1-1.6,2-2.7,3-3.2c1-0.5,1.9-0.7,3-0.7c1,0,1.9,0.2,2.6,0.7c0.8,0.5,1.4,1.3,1.8,2.5
				c0.3,0.8,0.5,2,0.5,3.7v12.8c0,1.9,1.1,3.1,3.4,3.8l-0.2,0.4c-2.1,0-3.7-0.4-4.9-1.1c-1-1.1-1.6-2.2-1.7-3.4V609
				c0-1.5-0.2-2.6-0.5-3.2c-0.6-0.9-1.4-1.3-2.6-1.3c-0.7,0-1.4,0.2-2,0.6c-0.7,0.4-1.4,1.2-2.2,2.4v9.5c0,1.3,0.1,2.1,0.2,2.4
				c0.2,0.3,0.4,0.6,0.8,0.8c0.4,0.2,1,0.3,2,0.3v0.7h-9.3v-0.7c1,0,1.7-0.1,2.1-0.4c0.4-0.2,0.6-0.6,0.8-1.1c0.1-0.2,0.1-0.9,0.1-2
				V609c0-1.5-0.2-2.6-0.7-3.3c-0.9-0.9-1.9-1.3-3-1.3c-0.7,0-1.5,0.2-2.2,0.6c-1.1,0.6-2,1.2-2.6,2v9.9c0,1.2,0.1,2,0.2,2.4
				c0.2,0.4,0.4,0.6,0.7,0.8c0.3,0.2,1,0.3,2,0.3v0.7h-9.2v-0.7c0.9,0,1.5-0.1,1.8-0.3c0.3-0.2,0.6-0.5,0.8-0.9
				c0.2-0.4,0.2-1.2,0.2-2.3v-7.1c0-2-0.1-3.4-0.2-3.9c-0.1-0.4-0.3-0.7-0.5-0.9c-0.2-0.2-0.5-0.2-0.8-0.2c-0.4,0-0.8,0.1-1.4,0.3
				l-0.3-0.7l5.6-2.2h0.9V606z"/>
		</g>
		<g>
			<path fill="#908F8F" d="M201.4,598.6v0.7c-0.9,0.1-1.4,1-1.4,2.6v11.9c0,2.1,0.1,3.4,0.2,3.9c0.1,0.5,0.3,0.8,0.5,1
				c0.2,0.2,0.5,0.3,0.8,0.3c0.4,0,0.9-0.1,1.4-0.4l0.3,0.7l-5.5,1.9h-1v-3.5c-1.6,1.7-2.8,2.7-3.6,3c-0.8,0.3-1.7,0.5-2.6,0.5
				c-1.4-0.2-2.4-0.8-3.1-1.6c-1-1.4-1.5-3.1-1.5-5.2v-8.2c0-0.9-0.1-1.5-0.3-1.8c-0.2-0.3-0.5-0.7-1-1l-1.1,0v-0.7h3.9l1.7,1.2
				v11.2c0,1.5,0.3,2.6,0.9,3.3c0.5,0.5,1.2,0.7,2.2,0.7c0.6,0,1.2-0.2,2-0.5c0.7-0.3,1.6-1,2.6-2V602
				C197,600.1,198.6,598.9,201.4,598.6z"/>
		</g>
		<g>
			<path fill="#908F8F" d="M221.3,623c0,2,1,3.4,3.1,4l-0.2,0.4c-1.9,0-3.5-0.4-4.9-1.1c-1-1.1-1.6-2.2-1.7-3.4V609
				c-0.2-1.5-0.5-2.6-1-3.3c-0.7-0.9-1.5-1.3-2.6-1.3c-0.7,0-1.5,0.2-2.2,0.6c-1.1,0.6-2,1.2-2.6,2v9.9c0,1.2,0.1,2,0.2,2.4
				c0.2,0.4,0.4,0.6,0.7,0.8c0.3,0.2,1,0.3,2,0.3v0.7h-9.2v-0.7c0.9,0,1.5-0.1,1.8-0.3c0.3-0.2,0.6-0.5,0.8-0.9
				c0.2-0.4,0.2-1.2,0.2-2.3v-7.1c0-2-0.1-3.4-0.2-3.9c-0.1-0.4-0.3-0.7-0.5-0.9c-0.2-0.2-0.5-0.2-0.8-0.2c-0.4,0-0.8,0.1-1.4,0.3
				l-0.3-0.7l5.6-2.2h0.9v3.9c1.4-1.4,2.1-2.1,2.4-2.3c0.6-0.5,1.3-0.9,2-1.2c0.7-0.3,1.4-0.4,2.1-0.4c1.2,0,2.3,0.3,3.3,1
				c1.2,0.8,2,2.2,2.2,4.1V623z"/>
		</g>
		<g>
			<path fill="#908F8F" d="M229.8,602v14.9c0,1.2,0.1,1.9,0.2,2.3c0.2,0.4,0.4,0.7,0.7,0.9c0.3,0.2,0.9,0.3,1.8,0.3v0.7h-9v-0.7
				c0.9,0,1.5-0.1,1.8-0.3c0.3-0.2,0.5-0.5,0.7-0.9c0.2-0.4,0.3-1.2,0.3-2.3v-9.6l-0.2-1.4c-0.1-0.4-0.3-0.7-0.5-0.9
				c-0.2-0.2-0.5-0.2-0.8-0.2c-0.4,0-0.8,0.1-1.4,0.3v-0.8l5.3-2.2H229.8z M227.4,595.4c0.6,0,1,0.2,1.4,0.6
				c0.4,0.4,0.6,0.9,0.6,1.5c0,0.6-0.2,1-0.6,1.4c-0.4,0.4-0.9,0.6-1.4,0.6c-0.6,0-1.1-0.2-1.5-0.6c-0.4-0.4-0.6-0.9-0.6-1.4
				c0-0.6,0.2-1.1,0.6-1.5C226.3,595.6,226.8,595.4,227.4,595.4z"/>
		</g>
		<g>
			<path fill="#908F8F" d="M247.1,619c-0.9,0.9-1.8,1.6-2.6,2c-0.9,0.4-1.8,0.6-2.8,0.6c-2,0-3.8-0.8-5.3-2.5
				c-1.5-1.7-2.3-3.9-2.3-6.5c0-2.6,0.8-5,2.4-7c1.6-2,3.7-3.1,6.4-3.1c1.6,0,3,0.4,4.2,1.1v-11.3c0-2.1,0-3.4-0.1-3.9
				c-0.1-0.5-0.3-0.8-0.5-1c-0.2-0.2-0.5-0.3-0.8-0.3s-0.8,0.1-1.4,0.3l-0.3-0.7l5.5-2.3h0.9v31.9c0,1.5,0.2,2.7,0.6,3.5
				c0.5,0.4,1.3,0.8,2.4,1v0.8H248h-0.9V619z M247.1,617.6v-9.4c-0.1-0.9-0.3-1.7-0.7-2.5c-0.4-0.7-0.9-1.3-1.6-1.7
				c-0.7-0.4-1.3-0.6-2-0.6c-1.2,0-2.2,0.5-3.1,1.6c-1.2,1.4-1.9,3.4-1.9,6c0,2.7,0.6,4.8,1.8,6.2c1.2,1.4,2.5,2.2,4,2.2
				C244.7,619.5,245.9,618.8,247.1,617.6z"/>
		</g>
		<g>
			<path fill="#908F8F" d="M263.7,618.3c-1.9,1.5-3.1,2.3-3.6,2.6c-0.7,0.3-1.5,0.5-2.4,0.5c-1.3,0-2.3-0.4-3.1-1.3
				c-0.8-0.9-1.2-2-1.2-3.4c0-1.4,0.3-2.7,1-3.9c0.7-1,1.8-1.9,3.1-2.6c1.3-0.7,3.4-1.6,6.2-2.5v-0.7c0-1-0.3-1.9-0.9-2.6
				c-0.6-0.7-1.4-1-2.6-1c-0.9,0-1.5,0.2-2,0.7c-0.5,0.4-0.7,1-0.7,1.6l0,1.2c0,0.6-0.2,1.1-0.5,1.4c-0.3,0.3-0.7,0.5-1.3,0.5
				c-0.5,0-0.9-0.2-1.2-0.5c-0.3-0.4-0.5-0.8-0.5-1.4c0-1.2,0.6-2.2,1.8-3.2c1.2-1,2.9-1.4,5-1.4c1.6,0,3,0.3,4,0.8
				c0.8,0.4,1.4,1.1,1.8,2c0.2,0.6,0.4,1.8,0.4,3.5v6.3c0,1.8,0,2.8,0.1,3.2c0.1,0.4,0.2,0.7,0.3,0.8c0.2,0.1,0.3,0.2,0.5,0.2
				c0.2,0,0.4-0.1,0.6-0.2c0.3-0.2,0.8-0.6,1.6-1.4v1.1c-1.5,2-2.9,3-4.3,3c-0.7,0-1.2-0.2-1.6-0.7
				C263.9,620.1,263.7,619.4,263.7,618.3z M263.7,616.9v-8.2c-2,0.8-3.4,1.4-3.9,1.7c-1.4,1-2.3,1.9-2.7,2.8
				c-0.4,0.8-0.6,1.7-0.6,2.5c0.2,0.9,0.6,1.7,1.2,2.4c0.6,0.6,1.2,1,2,1C260.6,619,262,618.3,263.7,616.9z"/>
		</g>
		<g>
			<path fill="#908F8F" d="M285,619c-0.9,0.9-1.8,1.6-2.6,2c-0.9,0.4-1.8,0.6-2.8,0.6c-2,0-3.8-0.8-5.3-2.5
				c-1.5-1.7-2.3-3.9-2.3-6.5c0-2.6,0.8-5,2.4-7c1.6-2,3.7-3.1,6.4-3.1c1.6,0,3,0.4,4.2,1.1v-11.3c0-2.1,0-3.4-0.1-3.9
				c-0.1-0.5-0.3-0.8-0.5-1c-0.2-0.2-0.5-0.3-0.8-0.3s-0.8,0.1-1.4,0.3l-0.3-0.7l5.5-2.3h0.9v31.9c0,1.5,0.2,2.7,0.6,3.5
				c0.5,0.4,1.3,0.8,2.4,1v0.8h-5.4H285V619z M285,617.6v-9.4c-0.1-0.9-0.3-1.7-0.7-2.5c-0.4-0.7-0.9-1.3-1.6-1.7
				c-0.7-0.4-1.3-0.6-2-0.6c-1.2,0-2.2,0.5-3.1,1.6c-1.2,1.4-1.9,3.4-1.9,6c0,2.7,0.6,4.8,1.8,6.2c1.2,1.4,2.5,2.2,4,2.2
				C282.7,619.5,283.9,618.8,285,617.6z"/>
		</g>
	</g>
</g>
</svg>
